<?xml version="1.0" encoding="UTF-8" standalone="no"?>
<!-- Created with Inkscape (http://www.inkscape.org/) -->

<svg
   width="61.297729mm"
   height="40.234005mm"
   viewBox="0 0 61.297729 40.234005"
   version="1.1"
   id="svg5"
   sodipodi:docname="zap.svg"
   inkscape:version="1.1.1 (3bf5ae0d25, 2021-09-20)"
   xmlns:inkscape="http://www.inkscape.org/namespaces/inkscape"
   xmlns:sodipodi="http://sodipodi.sourceforge.net/DTD/sodipodi-0.dtd"
   xmlns="http://www.w3.org/2000/svg"
   xmlns:svg="http://www.w3.org/2000/svg">
  <sodipodi:namedview
     id="namedview7"
     pagecolor="#ffffff"
     bordercolor="#666666"
     borderopacity="1.0"
     inkscape:pageshadow="2"
     inkscape:pageopacity="0.0"
     inkscape:pagecheckerboard="0"
     inkscape:document-units="mm"
     showgrid="false"
     inkscape:zoom="2.9362514"
     inkscape:cx="191.91136"
     inkscape:cy="29.11876"
     inkscape:window-width="1920"
     inkscape:window-height="1009"
     inkscape:window-x="-8"
     inkscape:window-y="-8"
     inkscape:window-maximized="1"
     inkscape:current-layer="layer1" />
  <defs
     id="defs2">
    <inkscape:path-effect
       effect="powerclip"
       id="path-effect18742"
       is_visible="true"
       lpeversion="1"
       inverse="true"
       flatten="false"
       hide_clip="false"
       message="Use fill-rule evenodd on &lt;b&gt;fill and stroke&lt;/b&gt; dialog if no flatten result after convert clip to paths." />
    <inkscape:path-effect
       effect="powerclip"
       id="path-effect13820"
       is_visible="true"
       lpeversion="1"
       inverse="true"
       flatten="false"
       hide_clip="false"
       message="Use fill-rule evenodd on &lt;b&gt;fill and stroke&lt;/b&gt; dialog if no flatten result after convert clip to paths." />
  </defs>
  <g
     inkscape:label="Layer 1"
     inkscape:groupmode="layer"
     id="layer1"
     transform="translate(-138.66704,-151.15821)">
    <g
       id="g39390">
      <a
         id="a13662"
         style="fill:none;stroke:#808080" />
      <path
         id="path11967"
         clip-path="none"
         style="fill:#ffffff;stroke:none;stroke-width:0.264583px;stroke-linecap:butt;stroke-linejoin:miter;stroke-opacity:1"
         d="m 191.4137,157.73179 c -0.7734,0.006 -3.0807,-0.0306 -3.94816,0.0742 l -7.06675,0.24545 c -3.21747,12.22712 -3.33397,27.19358 -4.55045,33.34078 3.17962,-0.10089 5.74253,-0.48674 9.2811,-0.94658 l 0.99108,-10.81302 c 12.54461,-1.62252 21.01891,-22.02228 5.29318,-21.90085 z m -1.9226,7.67706 c 1.89629,-0.35978 3.22446,2.49459 -2.24411,4.08685 l 0.40529,-3.64949 z"
         sodipodi:nodetypes="sccccccscccc" />
      <path
         id="path14314"
         clip-path="none"
         style="fill:#dd262a;fill-opacity:1;stroke:none;stroke-width:0.264583px;stroke-linecap:butt;stroke-linejoin:round;stroke-opacity:1"
         d="m 191.48257,159.35507 -9.8224,0.27335 c -2.12779,9.53656 -2.80683,21.3261 -3.73941,30.45717 2.25273,0.0168 4.32529,-0.0178 6.57802,-0.36083 l 0.67584,-11.08335 c 14.93517,-2.85609 17.19796,-20.18962 6.30795,-19.28634 z m -0.89708,4.83935 c 5.10342,-0.0907 2.48968,7.09622 -4.73513,7.82411 l 0.95694,-7.43482 1.76873,-0.26617 c 0.70297,-0.19312 1.46279,-0.11341 2.00946,-0.12312 z"
         sodipodi:nodetypes="ccccccscccs" />
      <path
         id="path28479"
         style="fill:#ffffff;stroke:none;stroke-width:0.999999px;stroke-linecap:butt;stroke-linejoin:miter;stroke-opacity:1"
         d="M 161.42969,4.5976562 C 154.89496,5.0248185 146.14899,5.3057536 132.82227,5.2792969 116.28902,30.978988 100.25614,58.9332 84.630859,88.71875 73.779004,88.887317 65.387883,89.465036 57.214844,90.080078 L 95.701172,60.111328 108.64258,28.949219 C 81.948871,28.408973 59.325117,30.582254 36.611328,32.695312 31.501445,41.961316 26.486417,51.25147 23.158203,60.962891 L 56.193359,60.28125 12.941406,94.337891 1.8730469,123.9668 c 22.3073381,-1.57743 44.6145361,-3.0027 66.9218751,-5.44922 -4.881449,11.23869 -8.328601,18.1747 -14.644531,33.7168 11.462135,-1.47247 21.431262,-2.86149 40.699218,-4.76758 3.876586,-10.86732 8.341411,-21.77575 10.896481,-29.11914 l 8.00391,0.16992 c -1.07992,9.68005 -1.86873,18.92425 -2.04297,27.24609 10.40905,-0.51084 20.63232,-1.02037 30.14063,-1.53125 3.82688,-54.916836 11.25301,-98.674587 19.58203,-139.6347638 z m -40.1875,76.6289058 c -0.48216,2.838086 -0.82133,5.675587 -0.85157,8.513672 h -3.06445 c 0.65057,-3.493039 2.41063,-5.875486 3.91602,-8.513672 z"
         transform="matrix(0.26458333,0,0,0.26458333,138.17146,149.94175)" />
      <path
         style="fill:#dd262a;fill-opacity:1;stroke:none;stroke-width:0.264583px;stroke-linecap:butt;stroke-linejoin:miter;stroke-opacity:1"
         d="m 149.39006,159.98893 c 4.9891,-0.14 10.13074,-0.37153 15.54384,-0.76593 -1.00996,2.08866 -1.56375,4.1013 -2.07216,6.10637 -4.74096,3.44708 -9.40332,7.02517 -13.89028,10.89558 3.8649,0.003 6.56485,-0.34347 9.65311,-0.57345 -0.16176,1.44153 -0.47564,2.93376 -0.89204,4.46017 l -16.4708,1.24248 c 0.40743,-1.81593 1.13981,-3.63186 1.87964,-5.44779 5.73475,-4.07143 9.9631,-7.56348 14.68674,-11.24602 -2.98093,-0.25189 -7.02766,0.0883 -10.70443,0.22301 z"
         id="path30644"
         sodipodi:nodetypes="ccccccccccc" />
      <path
         id="path32768"
         style="fill:#dd262a;fill-opacity:1;stroke:none;stroke-width:0.999999px;stroke-linecap:butt;stroke-linejoin:miter;stroke-opacity:1"
         d="m 148.76562,11.492188 c -4.00879,-0.03179 -8.01856,0.117695 -12.02734,0.427734 -28.49537,45.807042 -50.919768,90.166338 -72.710936,134.185548 12.346847,-1.61091 20.383437,-2.14587 29.289062,-2.89649 l 9.535154,-27.24414 c 3.38725,-0.47622 7.89741,-0.7665 16.68946,-0.34179 -0.58576,5.93586 -1.03352,7.68885 -2.04493,26.39453 8.2303,-0.94598 14.21962,-1.14416 19.75391,-1.19141 2.69975,-37.94033 7.76829,-88.704882 18.73047,-129.07617 -2.40527,-0.154502 -4.80957,-0.238741 -7.21485,-0.257812 z m -18.15624,40.955078 c -2.18121,14.10943 -4.51513,28.067326 -4.93946,43.933593 h -14.30273 c 4.61295,-13.100711 11.46335,-28.119294 19.24219,-43.933593 z"
         transform="matrix(0.26458333,0,0,0.26458333,138.17146,149.94175)" />
    </g>
  </g>
</svg>
