<?xml version="1.0" encoding="UTF-8" standalone="no"?>
<!-- Created with Inkscape (http://www.inkscape.org/) -->

<svg
   width="61.227573mm"
   height="35.007431mm"
   viewBox="0 0 61.227573 35.007431"
   version="1.1"
   id="svg5"
   sodipodi:docname="zip.svg"
   inkscape:version="1.1.1 (3bf5ae0d25, 2021-09-20)"
   xmlns:inkscape="http://www.inkscape.org/namespaces/inkscape"
   xmlns:sodipodi="http://sodipodi.sourceforge.net/DTD/sodipodi-0.dtd"
   xmlns="http://www.w3.org/2000/svg"
   xmlns:svg="http://www.w3.org/2000/svg">
  <sodipodi:namedview
     id="namedview7"
     pagecolor="#ffffff"
     bordercolor="#666666"
     borderopacity="1.0"
     inkscape:pageshadow="2"
     inkscape:pageopacity="0.0"
     inkscape:pagecheckerboard="0"
     inkscape:document-units="mm"
     showgrid="false"
     inkscape:zoom="2.9362514"
     inkscape:cx="154.7892"
     inkscape:cy="115.96418"
     inkscape:window-width="1920"
     inkscape:window-height="1009"
     inkscape:window-x="-8"
     inkscape:window-y="-8"
     inkscape:window-maximized="1"
     inkscape:current-layer="layer1" />
  <defs
     id="defs2">
    <inkscape:path-effect
       effect="powerclip"
       id="path-effect18742"
       is_visible="true"
       lpeversion="1"
       inverse="true"
       flatten="false"
       hide_clip="false"
       message="Use fill-rule evenodd on &lt;b&gt;fill and stroke&lt;/b&gt; dialog if no flatten result after convert clip to paths." />
    <inkscape:path-effect
       effect="powerclip"
       id="path-effect13820"
       is_visible="true"
       lpeversion="1"
       inverse="true"
       flatten="false"
       hide_clip="false"
       message="Use fill-rule evenodd on &lt;b&gt;fill and stroke&lt;/b&gt; dialog if no flatten result after convert clip to paths." />
  </defs>
  <g
     inkscape:label="Layer 1"
     inkscape:groupmode="layer"
     id="layer1"
     transform="translate(-138.17146,-149.94175)">
    <g
       id="g21701">
      <a
         id="a13662" />
      <path
         style="fill:#ffffff;fill-opacity:1;stroke:none;stroke-width:0.303719px;stroke-linecap:butt;stroke-linejoin:round;stroke-opacity:1"
         d="m 145.47007,163.30303 c 0.70204,-2.37483 1.85729,-6.46173 2.95851,-8.83656 6.91408,-0.68671 14.67865,-1.19668 21.16004,-0.58882 -0.95195,2.84484 -2.6816,6.9201 -3.24385,9.30276 -5.9657,4.01897 -7.0871,5.14318 -12.78751,9.32658 l 8.88292,-0.64852 c -0.39285,2.04234 -1.55566,6.33743 -2.14755,8.3798 -7.43103,0.9253 -15.28283,1.96211 -22.12117,2.69996 0.8014,-2.65981 2.94912,-7.84266 4.25005,-10.50248 l 12.30686,-9.90277 c -4.77015,0.44385 -4.11716,0.59019 -9.2583,0.77005 z"
         id="path971"
         sodipodi:nodetypes="ccccccccccc" />
      <path
         style="fill:#0100e5;fill-opacity:1;stroke:none;stroke-width:0.264583px;stroke-linecap:butt;stroke-linejoin:round;stroke-opacity:1"
         d="m 147.38878,161.8327 c 0.59571,-2.12389 1.42308,-4.24779 2.35753,-6.37168 5.81947,-0.5516 11.63894,-0.56851 17.45841,-0.44602 -0.80778,2.54424 -1.62555,5.10097 -2.10265,7.23186 -5.06221,3.59431 -9.8369,7.46061 -14.55931,11.56461 l 9.71682,-0.70088 c -0.33337,1.82655 -0.70837,3.6531 -1.21062,5.47965 -6.30563,0.82754 -12.54775,1.6339 -18.35045,2.2938 0.68003,-2.37876 1.50848,-4.75752 2.61239,-7.13628 l 16.40709,-12.96638 c -4.04772,0.39695 -7.96668,0.89047 -12.32921,1.05132 z"
         id="path971-5"
         sodipodi:nodetypes="ccccccccccc" />
      <path
         style="fill:#ffffff;fill-opacity:1;stroke:none;stroke-width:0.264583px;stroke-linecap:butt;stroke-linejoin:round;stroke-opacity:1"
         d="m 171.29763,150.21207 10.13729,-0.27032 c -3.99444,10.77147 -8.15367,21.61146 -11.08344,32.61953 l -9.86696,0.72088 c 3.08713,-11.38543 6.5292,-22.5224 10.81311,-33.07009 z"
         id="path5785"
         sodipodi:nodetypes="ccccc" />
      <path
         style="fill:#0100e5;fill-opacity:1;stroke:none;stroke-width:0.264583px;stroke-linecap:butt;stroke-linejoin:miter;stroke-opacity:1"
         d="m 172.64927,151.24833 6.89336,-0.0451 c -3.67856,9.64413 -7.09968,19.44915 -9.82191,29.69099 l -7.16368,0.63077 c 2.8871,-11.04618 6.36755,-20.90564 10.09223,-30.27666 z"
         id="path6010"
         sodipodi:nodetypes="ccccc" />
      <path
         id="path11967"
         clip-path="none"
         style="fill:#ffffff;stroke:none;stroke-width:0.999999px;stroke-linecap:butt;stroke-linejoin:miter;stroke-opacity:1"
         d="M 193.9082 20.162109 C 190.98513 20.18468 187.88407 20.386998 184.60547 20.783203 L 157.89648 24.009766 C 141.30855 67.668222 130.99173 101.75672 122.98828 132.3125 C 135.00574 131.93118 147.41689 131.15399 160.79102 129.41602 L 170.15625 97.232422 C 239.70605 92.973205 253.34404 19.703182 193.9082 20.162109 z M 193.45312 49.603516 C 202.15274 49.435659 200.70179 63.118699 180.0332 69.136719 L 184.9707 52.789062 C 188.35702 50.590253 191.23558 49.646303 193.45312 49.603516 z "
         transform="matrix(0.26458333,0,0,0.26458333,138.17146,149.94175)" />
      <path
         id="path14314"
         clip-path="none"
         style="fill:#0100e5;fill-opacity:1;stroke:none;stroke-width:0.999999px;stroke-linecap:butt;stroke-linejoin:miter;stroke-opacity:1"
         d="M 197.57422 24.679688 L 161.8125 27.585938 C 151.04591 60.394202 140.81657 93.203454 130.48047 126.01172 C 138.99472 126.07521 147.50918 125.26317 156.02344 123.9668 L 166.07031 91.783203 C 234.94903 84.905105 241.79847 25.69313 197.57422 24.679688 z M 195.03516 44.162109 C 215.00478 43.649152 207.33979 72.004179 171.68945 75.947266 L 180.07422 47.166016 L 187.95117 45.308594 C 190.60807 44.578704 192.96933 44.215174 195.03516 44.162109 z "
         transform="matrix(0.26458333,0,0,0.26458333,138.17146,149.94175)" />
    </g>
  </g>
</svg>
